<?xml version="1.0" encoding="utf-8"?>
<!-- Generator: Adobe Illustrator 18.0.0, SVG Export Plug-In . SVG Version: 6.00 Build 0)  -->
<!DOCTYPE svg PUBLIC "-//W3C//DTD SVG 1.1//EN" "http://www.w3.org/Graphics/SVG/1.1/DTD/svg11.dtd">
<svg version="1.1" id="Layer_1" xmlns="http://www.w3.org/2000/svg" xmlns:xlink="http://www.w3.org/1999/xlink" x="0px" y="0px"
	 width="200px" height="200px" viewBox="0 0 200 200" style="enable-background:new 0 0 200 200;" xml:space="preserve">
<style type="text/css">
	.st0{fill:none;stroke:#D7DCE0;stroke-width:4;stroke-miterlimit:10;}
	.st1{display:none;fill:none;stroke:#A84D54;stroke-width:4;stroke-miterlimit:10;}
	.st2{fill:#FFFFFF;fill-opacity:0;}
	.st3{fill:#223443;}
	.st4{display:none;}
	.st5{display:inline;fill:#FFFFFF;fill-opacity:0;}
	.st6{display:inline;fill:#223443;}
	.st7{display:inline;}
	.st8{fill:#FFFFFF;stroke:#223443;stroke-width:4;stroke-miterlimit:10;}
	.st9{display:inline;fill:none;stroke:#223443;stroke-width:4;stroke-miterlimit:10;}
</style>
<g id="cd-loading">
	<g id="cd-circle">
		<circle id="cd-loading-circle" class="st0" cx="100" cy="100" r="77.5"/>
		<circle id="cd-loading-circle-filled" class="st1" cx="100" cy="100" r="77.5"/>
	</g>
	<g id="cd-play-btn">
		<rect x="84" y="78.1" class="st2" width="32" height="43.9"/>
		<polygon class="st3" points="84,78.1 116,100 84,121.9 		"/>
	</g>
	<g id="cd-pause-btn" class="st4">
		<rect x="81" y="80.1" class="st5" width="38" height="39.9"/>
		<rect x="81" y="80.1" class="st6" width="11" height="39.9"/>
		<rect x="108" y="80.1" class="st6" width="11" height="39.9"/>
	</g>
</g>
<g id="cd-buildings" class="st4">
	<g id="cd-home-3" class="st7">
		<rect id="cd-home-3-base" x="66" y="55" class="st8" width="58" height="123"/>
		<polygon id="cd-home-3-roof" class="st8" points="59.4,56 95,15 130.6,56 		"/>
		<circle id="cd-home-3-window" class="st8" cx="95" cy="77" r="11"/>
	</g>
	<g id="cd-home-2" class="st7">
		<rect id="cd-home-2-base" x="98" y="132" class="st8" width="69" height="46"/>
		<rect id="cd-home-2-roof" x="98" y="122" class="st8" width="69" height="10"/>
		<rect id="cd-home-2-door" x="141" y="155" class="st8" width="15" height="22"/>
		<rect id="cd-home-2-window" x="106" y="143" class="st8" width="25" height="9"/>
	</g>
	<g id="cd-home-1" class="st7">
		<rect id="cd-home-1-base" x="29" y="109" class="st8" width="69" height="69"/>
		<rect id="cd-home-1-roof" x="23" y="100" class="st8" width="80" height="9"/>
		<rect id="cd-home-1-door" x="53" y="151" class="st8" width="20" height="27"/>
		<rect id="cd-home-1-window" x="53" y="121" class="st8" width="20" height="18"/>
		<rect id="cd-home-1-chimney" x="34" y="89" class="st8" width="11" height="11"/>
	</g>
	<line id="cd-floor" class="st9" x1="2" y1="178" x2="198" y2="178"/>
	<g id="cd-cloud-1" class="st7">
		<line class="st0" x1="5" y1="13" x2="29" y2="13"/>
		<line class="st0" x1="35" y1="13" x2="44" y2="13"/>
		<line class="st0" x1="72" y1="27" x2="14" y2="27"/>
	</g>
	<g id="cd-cloud-2" class="st7">
		<line class="st0" x1="191" y1="68" x2="159" y2="68"/>
		<line class="st0" x1="153" y1="68" x2="144" y2="68"/>
		<line class="st0" x1="179" y1="83" x2="133" y2="83"/>
	</g>
</g>
</svg>
