<?xml version="1.0" encoding="utf-8"?>
<!-- Generator: Adobe Illustrator 18.0.0, SVG Export Plug-In . SVG Version: 6.00 Build 0)  -->
<!DOCTYPE svg PUBLIC "-//W3C//DTD SVG 1.1//EN" "http://www.w3.org/Graphics/SVG/1.1/DTD/svg11.dtd">
<svg version="1.1" id="Layer_1" xmlns="http://www.w3.org/2000/svg" xmlns:xlink="http://www.w3.org/1999/xlink" x="0px" y="0px"
	 viewBox="0 0 1200 1000" enable-background="new 0 0 1200 1000" xml:space="preserve">
<g>
	<path fill="#FFFFFF" d="M825.4,429.4C810.3,384.2,760,324.6,700,295.5v70.2c60,34.2,67.6,94,68.3,97.3l2.8,22.7l22,3.1
		c5.6,0.8,135.3,22,135.3,127c0,108.1-70.5,134.2-86.4,144.2H354.6c-16.2-10-82.4-26.8-82.4-103.1c0-92.9,94.5-106.3,104.8-107.4
		l32.9-3.8v-29.1c0-19.4,30-131,130-164.8v-67.2c-130,28.1-183.1,139.7-195.8,204.8C287.5,503.7,209,549.8,209,654.9
		c0,109.4,89.3,155.4,137,164.5l504.5,0.6l3.4-0.8c47.8-11.1,139.8-68.2,139.8-205.3C993.6,497.8,893.9,445.1,825.4,429.4z"/>
	<path fill="#FFFFFF" d="M681.3,440c-10.7,0-21.3-14.4-21.3-25.1V206.1c0-10.7-7.1-26.1-17.8-26.1H584c-10.7,0-14,15.5-14,26.1
		v208.7c0,10.7-10.5,25.2-21.2,25.2h-18.1c-10.7,0-16,4.7-10.8,13.9l82.8,144.6c5.3,9.2,13.8,8.6,19.2-0.6l85.6-143.6
		c5.4-9.2,1.1-14.3-9.6-14.3H681.3z"/>
</g>
</svg>
